<svg id="svg" xmlns="http://www.w3.org/2000/svg" xmlns:xlink="http://www.w3.org/1999/xlink" width="400" height="400" viewBox="0, 0, 400,400"><g id="svgg"><path id="path0" d="M229.924 33.945 C 220.353 50.458,189.852 104.242,162.144 153.465 L 111.765 242.961 57.843 243.049 L 3.922 243.137 3.922 309.804 L 3.922 376.471 74.510 376.471 C 142.484 376.471,145.098 376.180,145.098 368.627 C 145.098 358.427,143.655 357.996,178.583 378.646 C 225.712 406.509,215.544 416.625,312.175 245.752 C 395.134 99.056,400.761 87.197,391.176 79.247 C 375.935 66.605,263.578 3.922,256.157 3.922 C 249.281 3.922,243.474 10.567,229.924 33.945 M265.576 24.007 C 270.966 29.397,267.751 39.216,260.596 39.216 C 253.707 39.216,249.739 32.421,252.471 25.302 C 255.089 18.480,259.602 18.034,265.576 24.007 M226.319 143.882 C 227.836 147.835,226.732 151.220,223.584 152.269 C 173.749 168.881,180.440 250.980,231.629 250.980 C 263.197 250.980,282.353 231.754,282.353 200.072 C 282.353 184.994,290.187 175.154,296.869 181.836 C 309.138 194.105,293.381 236.938,269.498 256.242 C 214.378 300.792,142.193 223.859,184.011 165.131 C 199.513 143.361,221.820 132.158,226.319 143.882 M273.052 143.034 C 276.034 150.804,246.512 201.581,238.068 203.207 C 227.995 205.147,229.800 197.932,247.334 166.169 C 263.306 137.234,268.897 132.205,273.052 143.034 M141.159 250.949 C 143.646 255.595,144.894 277.707,144.239 305.521 L 143.137 352.283 112.745 334.008 C 79.131 313.795,78.576 312.638,91.176 289.059 L 100.000 272.549 101.176 295.098 C 102.720 324.703,108.745 324.060,110.436 294.111 C 111.383 277.340,110.374 270.576,106.926 270.581 C 103.415 270.586,103.883 266.823,108.633 256.863 C 116.359 240.662,133.943 237.464,141.159 250.949 M47.059 294.118 C 47.059 307.190,45.316 317.647,43.137 317.647 C 40.959 317.647,39.216 307.190,39.216 294.118 C 39.216 281.046,40.959 270.588,43.137 270.588 C 45.316 270.588,47.059 281.046,47.059 294.118 M86.275 345.578 C 86.275 351.145,83.404 352.941,74.510 352.941 C 60.961 352.941,57.730 340.451,69.566 333.827 C 77.927 329.148,86.275 335.019,86.275 345.578 " stroke="none" fill="#000000" fill-rule="evenodd"></path></g></svg>