<svg id="svg" version="1.1" xmlns="http://www.w3.org/2000/svg" xmlns:xlink="http://www.w3.org/1999/xlink" width="400" height="400" viewBox="0, 0, 400,400"><g id="svgg"><path id="path0" d="M170.426 7.371 C 135.452 23.258,127.962 42.122,130.034 109.113 C 132.449 187.193,190.445 222.167,243.492 177.531 C 275.819 150.330,277.679 49.983,246.398 20.775 C 224.632 0.453,196.560 -4.500,170.426 7.371 M225.928 83.200 C 242.222 114.709,203.412 145.037,177.704 120.885 C 160.519 104.741,168.798 73.191,192.157 65.805 C 202.746 62.457,219.723 71.201,225.928 83.200 M84.405 135.662 C 62.867 161.940,42.457 203.471,35.442 235.294 C 32.827 247.157,29.841 259.951,28.805 263.725 C 27.033 270.185,36.955 270.588,197.775 270.588 C 291.744 270.588,368.601 269.265,368.569 267.647 C 368.111 244.360,345.884 183.619,328.257 157.482 C 297.537 111.930,287.336 107.254,286.550 138.366 C 285.449 181.985,231.518 224.637,186.082 217.823 C 150.332 212.462,110.421 171.462,109.565 139.216 C 108.826 111.387,104.771 110.815,84.405 135.662 M14.909 301.376 C 2.750 309.896,-0.058 323.472,2.599 360.905 L 5.096 396.078 200.587 396.078 L 396.078 396.078 396.078 359.008 C 396.078 318.785,391.431 302.902,378.739 299.745 C 357.990 294.585,22.456 296.088,14.909 301.376 " stroke="none" fill="#000000" fill-rule="evenodd"></path></g></svg>