<svg id="svg" xmlns="http://www.w3.org/2000/svg" xmlns:xlink="http://www.w3.org/1999/xlink" width="400" height="400" viewBox="0, 0, 400,400"><g id="svgg"><path id="path0" d="M224.047 19.373 C 206.547 47.813,184.411 48.667,167.287 21.562 C 161.158 11.860,154.760 3.922,153.071 3.922 C 149.998 3.922,89.415 30.885,86.906 33.369 C 86.174 34.093,87.765 44.469,90.441 56.426 C 97.627 88.534,82.136 105.087,51.126 98.437 C 40.049 96.061,30.345 94.118,29.562 94.118 C 27.490 94.118,3.922 156.681,3.922 162.182 C 3.922 164.739,11.863 171.169,21.569 176.471 C 35.719 184.200,39.216 188.200,39.216 196.656 C 39.216 202.456,40.258 209.917,41.531 213.236 C 43.109 217.348,38.112 223.311,25.845 231.958 C 4.288 247.153,4.247 247.632,21.313 284.571 C 35.909 316.162,35.331 315.804,61.257 309.276 C 87.769 302.600,106.763 320.826,101.077 347.485 C 95.895 371.781,97.395 373.757,130.015 385.630 C 167.045 399.109,166.471 399.194,178.639 378.431 C 194.137 351.985,219.924 351.988,236.635 378.438 C 242.764 388.140,248.324 396.078,248.989 396.078 C 251.429 396.078,317.646 365.028,317.601 363.905 C 317.575 363.267,315.174 353.808,312.265 342.885 C 304.156 312.433,319.115 296.485,352.272 300.236 L 374.916 302.798 387.458 270.756 C 403.076 230.854,403.617 234.588,380.392 221.947 C 352.043 206.518,351.223 183.231,378.424 166.046 C 399.411 152.787,399.339 153.410,383.893 119.170 C 366.754 81.177,367.684 81.891,344.366 88.816 L 324.515 94.711 311.186 81.793 C 303.856 74.687,298.639 66.838,299.594 64.350 C 300.549 61.862,302.454 52.101,303.827 42.658 L 306.324 25.490 275.711 14.159 C 258.874 7.926,243.109 2.085,240.677 1.179 C 238.245 0.272,230.762 8.459,224.047 19.373 M221.569 114.072 C 286.196 131.478,310.164 205.313,267.402 255.270 C 217.784 313.238,121.905 283.742,114.654 208.279 C 108.857 147.956,164.695 98.755,221.569 114.072 " stroke="none" fill="#000000" fill-rule="evenodd"></path></g></svg>